<svg width="71" height="73" viewBox="0 0 71 73" fill="none" xmlns="http://www.w3.org/2000/svg">
<path d="M70.9874 36.1561V36.8719C70.9874 39.4286 70.6806 41.7808 70.2715 44.2352L35.5006 9.46426L26.2965 0.464722H35.296C55.0337 0.464722 70.9874 16.4184 70.9874 36.1561Z" fill="#E30A17"/>
<path opacity="0.7" d="M35.5005 9.46423L0.0136719 45.7692V4.24859C0.0136719 2.10097 1.75222 0.362427 3.89984 0.362427H26.3987L35.5005 9.46423Z" fill="#E30A17"/>
<path d="M65.5671 50.3713C66.7943 51.5985 66.9988 53.4393 66.1807 54.9733C65.3626 56.4051 64.3399 57.8368 63.3172 59.1663C56.7721 67.3477 46.6476 72.6656 35.3982 72.6656H3.79756C1.75222 72.6656 0.0136719 71.0293 0.0136719 68.8817V58.0413C0.0136719 57.0187 0.422742 56.0983 1.03635 55.3824L7.37692 48.8373L35.5005 20.2024L65.5671 50.3713Z" fill="#E30A17"/>
</svg>
