<svg width="17" height="16" viewBox="0 0 17 16" fill="none" xmlns="http://www.w3.org/2000/svg">
<path fill-rule="evenodd" clip-rule="evenodd" d="M3 7.43889C3 4.71122 5.21122 2.5 7.93889 2.5C10.6666 2.5 12.8778 4.71122 12.8778 7.43889C12.8778 8.76806 12.3527 9.9746 11.4987 10.8624C11.4735 10.8819 11.4493 10.9031 11.4262 10.9262C11.4031 10.9493 11.3819 10.9735 11.3624 10.9987C10.4746 11.8527 9.26806 12.3778 7.93889 12.3778C5.21122 12.3778 3 10.1666 3 7.43889ZM11.9307 12.4914C10.8335 13.3595 9.44669 13.8778 7.93889 13.8778C4.38279 13.8778 1.5 10.995 1.5 7.43889C1.5 3.88279 4.38279 1 7.93889 1C11.495 1 14.3778 3.88279 14.3778 7.43889C14.3778 8.94669 13.8595 10.3335 12.9914 11.4307L15.5802 14.0195C15.8731 14.3124 15.8731 14.7873 15.5802 15.0802C15.2873 15.3731 14.8124 15.3731 14.5195 15.0802L11.9307 12.4914Z" fill="white"/>
</svg>
