<svg width="14" height="13" viewBox="0 0 14 13" fill="none" xmlns="http://www.w3.org/2000/svg">
<path d="M5.75727 1.56231C6.17233 0.368229 7.86104 0.368227 8.2761 1.56231L8.90645 3.37575C9.08956 3.90251 9.58115 4.25967 10.1387 4.27103L12.0582 4.31015C13.3221 4.3359 13.8439 5.94196 12.8365 6.7057L11.3066 7.86558C10.8623 8.2025 10.6745 8.7804 10.836 9.31418L11.3919 11.1518C11.758 12.3618 10.3918 13.3544 9.35414 12.6323L7.77826 11.5357C7.32051 11.2172 6.71287 11.2172 6.25511 11.5357L4.67924 12.6323C3.64158 13.3544 2.27538 12.3618 2.64145 11.1518L3.1974 9.31418C3.35889 8.7804 3.17112 8.2025 2.72672 7.86558L1.19683 6.7057C0.189455 5.94196 0.711294 4.3359 1.97519 4.31015L3.89466 4.27103C4.45223 4.25967 4.94382 3.90251 5.12692 3.37575L5.75727 1.56231Z" fill="#FFC554"/>
</svg>
