<svg width="18" height="21" viewBox="0 0 18 21" fill="none" xmlns="http://www.w3.org/2000/svg">
<path fill-rule="evenodd" clip-rule="evenodd" d="M10.9459 1.15825C9.82464 0.202704 8.17548 0.202704 7.05421 1.15825L6.98389 1.21817C6.5034 1.62764 5.90598 1.8751 5.27668 1.92532L5.18458 1.93267C3.71605 2.04986 2.54992 3.21599 2.43273 4.68452L2.42538 4.77662C2.37516 5.40592 2.1277 6.00334 1.71823 6.48383L1.65831 6.55415C0.702765 7.67542 0.702765 9.32458 1.65831 10.4459L1.71823 10.5162C2.1277 10.9967 2.37516 11.5941 2.42538 12.2234L2.43273 12.3155C2.51589 13.3576 3.12723 14.2474 4 14.7181V19.656C4 20.3258 4.64574 20.8063 5.28735 20.6138L9 19.5L12.7127 20.6138C13.3543 20.8063 14 20.3258 14 19.656V14.7182C14.8728 14.2474 15.4842 13.3576 15.5674 12.3155L15.5747 12.2234C15.625 11.5941 15.8724 10.9967 16.2819 10.5162L16.3418 10.4459C17.2974 9.32458 17.2974 7.67542 16.3418 6.55415L16.2819 6.48383C15.8724 6.00334 15.625 5.40592 15.5747 4.77662L15.5674 4.68452C15.4502 3.21599 14.2841 2.04986 12.8155 1.93267L12.7234 1.92532C12.0941 1.8751 11.4967 1.62764 11.0162 1.21817L10.9459 1.15825ZM9.719 2.7404L9.64868 2.68047C9.27492 2.36196 8.7252 2.36196 8.35144 2.68047L8.28112 2.7404C7.48031 3.42285 6.48461 3.83529 5.43577 3.91898L5.34368 3.92633C4.85417 3.9654 4.46546 4.35411 4.42639 4.84362L4.41904 4.93571C4.33535 5.98455 3.92291 6.98025 3.24046 7.78106L3.18054 7.85138C2.86202 8.22514 2.86202 8.77486 3.18054 9.14862L3.24046 9.21894C3.92292 10.0198 4.33535 11.0155 4.41904 12.0643L4.42639 12.1564C4.46546 12.6459 4.85417 13.0346 5.34368 13.0737L5.43577 13.081C6.48461 13.1647 7.48031 13.5771 8.28113 14.2596L8.35144 14.3195C8.7252 14.638 9.27492 14.638 9.64868 14.3195L9.719 14.2596C10.5198 13.5771 11.5155 13.1647 12.5644 13.081L12.6564 13.0737C13.146 13.0346 13.5347 12.6459 13.5737 12.1564L13.5811 12.0643C13.6648 11.0155 14.0772 10.0198 14.7597 9.21894L14.8196 9.14862C15.1381 8.77486 15.1381 8.22514 14.8196 7.85138L14.7597 7.78106C14.0772 6.98024 13.6648 5.98454 13.5811 4.93571L13.5737 4.84362C13.5347 4.35411 13.146 3.9654 12.6564 3.92633L12.5643 3.91898C11.5155 3.83529 10.5198 3.42285 9.719 2.7404ZM9 11.4999C10.6569 11.4999 12 10.1568 12 8.49994C12 6.84308 10.6569 5.49994 9 5.49994C7.34315 5.49994 6 6.84308 6 8.49994C6 10.1568 7.34315 11.4999 9 11.4999Z" fill="#FAC153"/>
</svg>
