<svg width="34" height="33" viewBox="0 0 34 33" fill="none" xmlns="http://www.w3.org/2000/svg">
<path opacity="0.4" fill-rule="evenodd" clip-rule="evenodd" d="M13.4962 22.5593C13.0504 22.7949 13.0261 22.8821 12.9864 24.3863C12.9473 25.8703 12.9056 26.0565 12.522 26.4609C12.2625 26.7345 11.7482 26.9803 11.4338 26.9811C10.9296 26.9824 10.4744 27.3338 10.3893 27.7875C10.3271 28.1192 10.5116 28.55 10.7998 28.7458C11.2244 29.0344 12.2088 28.9255 13.0219 28.5001C13.4954 28.2523 14.1781 27.5845 14.4527 27.1005C14.8166 26.4588 14.9124 25.9154 14.9124 24.4924C14.9124 23.36 14.8999 23.2153 14.7804 22.9685C14.6845 22.7705 14.5737 22.6596 14.3757 22.5637C14.0404 22.4015 13.7972 22.4003 13.4962 22.5593ZM16.4892 22.5769C16.0001 22.8573 16.0019 22.8465 16.002 25.667C16.0021 28.4552 16.0034 28.4645 16.4439 28.7588C16.9003 29.0637 17.5636 28.885 17.8121 28.3903C17.9131 28.1894 17.9242 27.9195 17.9243 25.667C17.9244 23.3552 17.9154 23.1499 17.8056 22.9434C17.6612 22.672 17.2673 22.4338 16.9631 22.4338C16.8398 22.4338 16.6265 22.4982 16.4892 22.5769ZM19.5458 22.565C19.3536 22.6601 19.2391 22.7759 19.1453 22.9697C19.0265 23.215 19.0138 23.3618 19.0138 24.4924C19.0138 25.9154 19.1097 26.4588 19.4736 27.1005C19.7481 27.5845 20.4309 28.2523 20.9043 28.5001C21.7175 28.9255 22.7019 29.0344 23.1265 28.7458C23.4147 28.55 23.5992 28.1192 23.5369 27.7875C23.4518 27.3338 22.9967 26.9824 22.4925 26.9811C22.178 26.9803 21.6638 26.7345 21.4043 26.4609C21.0207 26.0565 20.9789 25.8703 20.9398 24.3863C20.9 22.8743 20.876 22.7907 20.4165 22.5562C20.1039 22.3967 19.8812 22.399 19.5458 22.565Z" fill="#2C2B46"/>
<path fill-rule="evenodd" clip-rule="evenodd" d="M3.70895 4.00408C3.52124 4.04952 3.12072 4.20903 2.81888 4.3586C1.86126 4.83315 1.13627 5.68265 0.740099 6.79439L0.591679 7.21094L0.572197 12.4422C0.550216 18.3294 0.541629 18.1987 1.01477 19.1627C1.51213 20.1761 2.51537 21.0011 3.63365 21.3162C3.84244 21.375 4.38447 21.43 4.96341 21.4512L5.9407 21.487L5.94166 20.0845C5.94275 18.4872 5.99933 18.1319 6.37455 17.3684C6.72035 16.6646 7.45617 15.9381 8.18366 15.582C9.15294 15.1075 8.7642 15.1276 16.9633 15.1276C25.1623 15.1276 24.7736 15.1075 25.7429 15.582C26.4703 15.9381 27.2062 16.6646 27.552 17.3684C27.9272 18.1319 27.9838 18.4872 27.9849 20.0845L27.9858 21.487L28.9631 21.4512C29.542 21.43 30.0841 21.375 30.2929 21.3162C31.4111 21.0011 32.4144 20.1761 32.9117 19.1627C33.3849 18.1987 33.3763 18.3294 33.3543 12.4422L33.3348 7.21094L33.1864 6.79439C32.7786 5.6501 32.0567 4.81905 31.0512 4.33662C30.7222 4.17872 30.3002 4.01831 30.1135 3.98005C29.58 3.87092 4.16369 3.89405 3.70895 4.00408ZM23.9241 7.7276C24.3817 8.06974 24.5094 8.56339 24.2546 9.00531C24.0082 9.43263 23.8094 9.49351 22.7309 9.47224C21.9183 9.45621 21.7803 9.43782 21.6316 9.32574C21.1764 8.98282 21.1024 8.37133 21.4607 7.91575C21.7004 7.61103 21.9064 7.56187 22.8706 7.5795C23.6414 7.59353 23.7687 7.61141 23.9241 7.7276ZM28.4972 7.67569C28.6199 7.73727 28.7882 7.88864 28.8714 8.012C29.0775 8.31788 29.0489 8.88823 28.8149 9.13867C28.5248 9.44923 28.3775 9.48595 27.4217 9.48595C26.6022 9.48595 26.5134 9.47429 26.3131 9.34048C25.6984 8.92989 25.7525 8.01867 26.4109 7.6928C26.7716 7.51426 28.1533 7.50291 28.4972 7.67569ZM9.60063 17.1172C8.97427 17.2403 8.3083 17.7698 8.04299 18.3558C7.90585 18.6587 7.8938 18.7819 7.87477 20.0759L7.85426 21.4698H16.9633H26.0722L26.0517 20.0759C26.0327 18.7819 26.0207 18.6587 25.8835 18.3558C25.7145 17.9825 25.2539 17.5045 24.8762 17.3107C24.7344 17.2379 24.4637 17.1489 24.2747 17.1131C23.8494 17.0325 10.0124 17.0363 9.60063 17.1172Z" fill="#2C2B46"/>
</svg>
