<svg width="90" height="96" viewBox="0 0 90 96" fill="none" xmlns="http://www.w3.org/2000/svg">
<path d="M60.3127 17.4794C55.9941 13.7565 50.5337 11.3241 44.5273 10.7781" stroke="#6759FF" stroke-width="3" stroke-miterlimit="10" stroke-linecap="round" stroke-linejoin="round"/>
<path d="M19.8567 68.8813C15.9351 68.8813 12.7582 72.0583 12.7582 75.9798V82.4826H7V75.9798C7 72.4058 9.65572 69.4274 13.0808 68.9558C13.4035 68.9062 13.751 68.8813 14.0985 68.8813H19.8567Z" fill="#E5E2FF" fill-opacity="0.5"/>
<path d="M44.5275 10.8028C30.132 12.1183 18.8638 24.2055 18.8638 38.9485V68.9059H14.0984C13.7509 68.9059 13.4035 68.9308 13.0808 68.9804V38.9485C13.0808 23.3368 25.7389 10.7035 41.3257 10.7035H41.8966C42.7901 10.6787 43.6588 10.7035 44.5275 10.8028Z" fill="#E5E2FF" fill-opacity="0.5"/>
<path d="M12.7582 82.507H7V76.0042C7 72.4302 9.65572 69.4518 13.0808 68.9802C13.4035 68.9306 13.751 68.9058 14.0985 68.9058H19.8567" stroke="#6759FF" stroke-width="2.48198" stroke-miterlimit="10" stroke-linecap="round" stroke-linejoin="round"/>
<path d="M75.9497 43.8809V68.8816" stroke="#6759FF" stroke-width="3" stroke-miterlimit="10" stroke-linecap="round" stroke-linejoin="round"/>
<path d="M18.8638 68.8809H14.0984C13.7509 68.8809 13.4035 68.9057 13.0808 68.9553V38.9234C13.0808 23.3117 25.7389 10.6785 41.3257 10.6785H41.8966C42.7653 10.6785 43.634 10.7281 44.5027 10.8026" stroke="#6759FF" stroke-width="3" stroke-miterlimit="10" stroke-linecap="round" stroke-linejoin="round"/>
<path d="M19.8568 68.8813H74.9071C78.8286 68.8813 82.0055 72.0583 82.0055 75.9798V82.4826H12.7583" stroke="#6759FF" stroke-width="3" stroke-miterlimit="10" stroke-linecap="round" stroke-linejoin="round"/>
<path d="M38.5706 10.6786V5.34235C38.5706 3.67942 39.9356 2.31433 41.5986 2.31433H41.6482C43.3111 2.31433 44.6762 3.67942 44.6762 5.34235V10.6786" stroke="#6759FF" stroke-width="3" stroke-miterlimit="10" stroke-linecap="round" stroke-linejoin="round"/>
<path d="M51.0309 84.5669C51.0309 89.7542 46.8116 93.9736 41.6242 93.9736C36.4369 93.9736 32.2175 89.7542 32.2175 84.5669C32.2175 83.8471 32.292 83.177 32.4409 82.5068H50.8076C50.9565 83.1522 51.0309 83.8471 51.0309 84.5669Z" stroke="#6759FF" stroke-width="3" stroke-miterlimit="10" stroke-linecap="round" stroke-linejoin="round"/>
<path d="M19.7822 43.0928V58.8533" stroke="#6759FF" stroke-width="3" stroke-miterlimit="10" stroke-linecap="round" stroke-linejoin="round"/>
<path d="M19.7822 36.094V37.7817" stroke="#6759FF" stroke-width="3" stroke-miterlimit="10" stroke-linecap="round" stroke-linejoin="round"/>
<path d="M62.8699 30.4597C62.8947 28.623 63.0684 27.0097 63.7386 25.4709C64.3591 24.0562 65.2774 22.8896 66.7666 22.3188C69.1493 21.4004 72.0284 21.9713 73.5672 24.7511C74.2125 25.9176 74.5352 27.1835 74.6841 28.4989C74.833 29.6903 74.833 30.8816 74.6841 32.0481C74.4855 33.6614 74.0636 35.2002 73.046 36.5157C71.8795 38.0297 70.3158 38.675 68.4295 38.5509C66.2205 38.402 64.781 37.161 63.8627 35.2499C63.3166 34.1578 63.0684 32.9913 62.9692 31.7751C62.9195 31.3035 62.8947 30.7823 62.8699 30.4597ZM65.2774 30.2611C65.3022 31.4028 65.3767 32.5693 65.7241 33.6614C65.9723 34.4557 66.3695 35.2002 67.0148 35.7463C68.1317 36.6894 70.2165 36.6646 71.2838 35.0513C71.9787 34.0089 72.2518 32.8175 72.351 31.6014C72.4503 30.4597 72.4503 29.318 72.2518 28.1762C72.1028 27.1835 71.8298 26.2403 71.2341 25.4212C70.3406 24.1554 68.6777 23.7583 67.3623 24.5277C66.568 24.9993 66.0964 25.7439 65.7986 26.5878C65.3767 27.7791 65.2774 29.0201 65.2774 30.2611Z" fill="#1AE5BE"/>
<path d="M55.3991 36.9376C54.307 34.8527 53.6865 32.47 53.6865 29.9384C53.6865 21.6486 60.4127 14.9473 68.6777 14.9473C76.9427 14.9473 83.6688 21.6734 83.6688 29.9384C83.6688 38.2034 76.9427 44.9296 68.6777 44.9296C65.7986 44.9296 63.118 44.1105 60.8098 42.7206" stroke="#1AE5BE" stroke-width="3" stroke-miterlimit="10" stroke-linecap="round" stroke-linejoin="round"/>
</svg>
