<svg width="20" height="21" viewBox="0 0 20 21" fill="none" xmlns="http://www.w3.org/2000/svg">
<path fill-rule="evenodd" clip-rule="evenodd" d="M3 20.127C1.34315 20.127 0 18.7839 0 17.127V9.46309C0 8.61263 0.360964 7.80213 0.993106 7.2332L7.9931 0.933204C9.13402 -0.0936193 10.866 -0.0936206 12.0069 0.933203L19.0069 7.2332C19.639 7.80213 20 8.61263 20 9.46309V17.127C20 18.7839 18.6569 20.127 17 20.127H3ZM18 9.46309V17.127C18 17.6793 17.5523 18.127 17 18.127H14V13.127C14 11.4701 12.6569 10.127 11 10.127H9C7.34315 10.127 6 11.4701 6 13.127V18.127H3C2.44772 18.127 2 17.6793 2 17.127V9.46309C2 9.1796 2.12032 8.90943 2.33104 8.71979L9.33103 2.41979C9.71134 2.07752 10.2887 2.07752 10.669 2.41979L17.669 8.71979C17.8797 8.90943 18 9.1796 18 9.46309ZM8 18.127V13.127C8 12.5747 8.44772 12.127 9 12.127H11C11.5523 12.127 12 12.5747 12 13.127V18.127H8Z" fill="#6F767E"/>
</svg>
