<svg width="19" height="20" viewBox="0 0 19 20" fill="none" xmlns="http://www.w3.org/2000/svg">
<path fill-rule="evenodd" clip-rule="evenodd" d="M0.599609 17C0.599609 18.6569 1.94276 20 3.59961 20H15.5996C17.2565 20 18.5996 18.6569 18.5996 17V5L18.5889 4.98929C18.5294 4.28645 18.2235 3.6239 17.7209 3.12132L15.4783 0.87868C14.9757 0.376096 14.3132 0.0702502 13.6103 0.0107091L13.5996 0H3.59961C1.94276 0 0.599609 1.34315 0.599609 3V17ZM3.59961 18H15.5996C16.1519 18 16.5996 17.5523 16.5996 17V6H14.5996C13.495 6 12.5996 5.10457 12.5996 4V2H3.59961C3.04732 2 2.59961 2.44772 2.59961 3V17C2.59961 17.5523 3.04732 18 3.59961 18ZM4.59961 9C4.59961 8.44771 5.04732 8 5.59961 8H13.5996C14.1519 8 14.5996 8.44771 14.5996 9C14.5996 9.55229 14.1519 10 13.5996 10H5.59961C5.04732 10 4.59961 9.55229 4.59961 9ZM4.59961 13C4.59961 12.4477 5.04732 12 5.59961 12H9.59961C10.1519 12 10.5996 12.4477 10.5996 13C10.5996 13.5523 10.1519 14 9.59961 14H5.59961C5.04732 14 4.59961 13.5523 4.59961 13Z" fill="#6F767E"/>
</svg>
