<svg width="20" height="21" viewBox="0 0 20 21" fill="none" xmlns="http://www.w3.org/2000/svg">
<path fill-rule="evenodd" clip-rule="evenodd" d="M0 14.7229C2.07459e-06 14.342 0.154705 13.9775 0.428635 13.713L1.45759 12.7191C1.84928 12.3408 2.06977 11.8191 2.06814 11.2746L2.05867 8.12155C2.04543 3.71014 5.61789 0.126953 10.0293 0.126953C14.4314 0.126953 18 3.69554 18 8.09762L18 11.2985C18 11.829 18.2107 12.3377 18.5858 12.7127L19.5858 13.7127C19.851 13.978 20 14.3377 20 14.7127C20 15.4938 19.3668 16.127 18.5858 16.127H14C14 18.3361 12.2091 20.127 10 20.127C7.79086 20.127 6 18.3361 6 16.127H1.40408C0.628628 16.127 0 15.4983 0 14.7229ZM8 16.127C8 17.2315 8.89543 18.127 10 18.127C11.1046 18.127 12 17.2315 12 16.127H8ZM16 11.2985C16 12.3594 16.4214 13.3768 17.1716 14.127L2.87851 14.127C3.64222 13.3729 4.07136 12.343 4.06813 11.2686L4.05867 8.11555C4.04875 4.81105 6.7248 2.12695 10.0293 2.12695C13.3268 2.12695 16 4.80011 16 8.09762L16 11.2985Z" fill="#6F767E"/>
</svg>
